<svg xmlns="http://www.w3.org/2000/svg" width="14" height="14" viewBox="0 0 14 14">
    <g fill="none" fill-rule="evenodd">
        <circle cx="7" cy="7" r="7" fill="#FF6F61"/>
        <path fill="#FFF" fill-rule="nonzero" d="M7.165 2h.017c.854 0 1.147.225 1.147.57 0 .264-.035.56-.124 1.154-.293 1.652-.453 3.312-.658 5.156-.053.144-.729.144-.765 0-.213-1.844-.364-3.504-.658-5.156C6.036 3.131 6 2.834 6 2.569 6 2.225 6.293 2 7.165 2zm-.005 9.9h-.009C6.502 11.9 6 11.41 6 10.744c0-.674.502-1.173 1.16-1.173.685 0 1.17.499 1.17 1.173 0 .666-.485 1.156-1.17 1.156z"/>
    </g>
</svg>
