<svg xmlns="http://www.w3.org/2000/svg" width="65" height="64" viewBox="0 0 65 64">
    <g fill="none" fill-rule="evenodd" stroke="#FFF" stroke-linecap="round" stroke-linejoin="round" stroke-width="7">
        <path d="M37.098 27A13.053 13.053 0 0 1 41 36.311c0 3.503-1.406 6.86-3.902 9.311L26.474 56.087A12.984 12.984 0 0 1 17.188 60c-3.494 0-6.84-1.41-9.286-3.913A13.053 13.053 0 0 1 4 46.777c0-3.504 1.406-6.86 3.902-9.311l3.195-3.203"/>
        <path d="M28.816 37C26.376 34.548 25 31.192 25 27.689s1.375-6.86 3.816-9.311L39.023 7.913C41.413 5.41 44.687 4 48.103 4c3.417 0 6.69 1.41 9.081 3.913C59.624 10.364 61 13.72 61 17.223c0 3.504-1.375 6.86-3.816 9.311l-3.124 3.203"/>
    </g>
</svg>
